<?xml version="1.0" encoding="UTF-8" standalone="no"?>
<!-- Created with Inkscape (http://www.inkscape.org/) -->

<svg
   xmlns:dc="http://purl.org/dc/elements/1.1/"
   xmlns:cc="http://creativecommons.org/ns#"
   xmlns:rdf="http://www.w3.org/1999/02/22-rdf-syntax-ns#"
   xmlns:svg="http://www.w3.org/2000/svg"
   xmlns="http://www.w3.org/2000/svg"
   xmlns:sodipodi="http://sodipodi.sourceforge.net/DTD/sodipodi-0.dtd"
   xmlns:inkscape="http://www.inkscape.org/namespaces/inkscape"
   width="40"
   height="40"
   viewBox="0 0 10.583333 10.583334"
   version="1.1"
   id="svg4627"
   inkscape:version="0.92.4 (5da689c313, 2019-01-14)"
   sodipodi:docname="pluginIcon_dark.svg">
  <defs
     id="defs4621">
    <marker
       style="overflow:visible"
       refY="0"
       refX="0"
       orient="auto"
       inkscape:stockid="Arrow2Send"
       inkscape:isstock="true"
       id="marker4644">
      <path
         inkscape:connector-curvature="0"
         transform="matrix(-0.3,0,0,-0.3,0.69,0)"
         style="fill:#000000;fill-opacity:1;stroke:#000000;stroke-opacity:1"
         id="path4642"
         d="M 8.72,4.03 -2.21,0.02 8.72,-4 c -1.75,2.37 -1.74,5.62 0,8.03 z" />
    </marker>
    <marker
       style="overflow:visible"
       refY="0"
       refX="0"
       orient="auto"
       inkscape:stockid="Arrow2Sstart"
       inkscape:isstock="true"
       id="marker4616">
      <path
         inkscape:connector-curvature="0"
         transform="matrix(0.3,0,0,0.3,-0.69,0)"
         style="fill:#000000;fill-opacity:1;stroke:#000000;stroke-opacity:1"
         id="path4614"
         d="M 8.72,4.03 -2.21,0.02 8.72,-4 c -1.75,2.37 -1.74,5.62 0,8.03 z" />
    </marker>
    <linearGradient
       x1="1"
       y1="0.5"
       x2="-2.220446e-16"
       y2="0.5"
       id="linearGradient-1">
      <stop
         stop-color="#F9711D"
         offset="0%"
         id="stop6" />
      <stop
         stop-color="#B50612"
         offset="100%"
         id="stop8" />
    </linearGradient>
    <linearGradient
       x1="-2.220446e-16"
       y1="0.5"
       x2="1"
       y2="0.5"
       id="linearGradient-2">
      <stop
         stop-color="#F9711D"
         offset="0%"
         id="stop11" />
      <stop
         stop-color="#B50612"
         offset="100%"
         id="stop13" />
    </linearGradient>
  </defs>
  <sodipodi:namedview
     id="base"
     pagecolor="#ffffff"
     bordercolor="#666666"
     borderopacity="1.0"
     inkscape:pageopacity="0.0"
     inkscape:pageshadow="2"
     inkscape:zoom="16"
     inkscape:cx="17.381522"
     inkscape:cy="17.138062"
     inkscape:document-units="mm"
     inkscape:current-layer="layer1"
     showgrid="false"
     units="px"
     inkscape:window-width="1920"
     inkscape:window-height="1017"
     inkscape:window-x="-8"
     inkscape:window-y="1072"
     inkscape:window-maximized="1"
     inkscape:snap-global="true"
     inkscape:snap-grids="true"
     inkscape:snap-intersection-paths="false"
     inkscape:object-paths="true"
     inkscape:object-nodes="false"
     inkscape:pagecheckerboard="false">
    <inkscape:grid
       type="xygrid"
       id="grid4629" />
  </sodipodi:namedview>
  <metadata
     id="metadata4624">
    <rdf:RDF>
      <cc:Work
         rdf:about="">
        <dc:format>image/svg+xml</dc:format>
        <dc:type
           rdf:resource="http://purl.org/dc/dcmitype/StillImage" />
        <dc:title></dc:title>
      </cc:Work>
    </rdf:RDF>
  </metadata>
  <g
     inkscape:label="Layer 1"
     inkscape:groupmode="layer"
     id="layer1"
     transform="translate(0,-286.41665)">
    <path
       style="fill:#3399ff;fill-opacity:1;stroke:#75baff;stroke-width:0.13229167;stroke-linecap:butt;stroke-linejoin:miter;stroke-miterlimit:4;stroke-dasharray:none;stroke-opacity:1"
       d="M 0.52916654,289.22212 H 10.054167"
       id="path4537"
       inkscape:connector-curvature="0" />
    <path
       style="fill:#3399ff;fill-opacity:1;stroke:#75baff;stroke-width:0.13229169;stroke-linecap:butt;stroke-linejoin:miter;stroke-miterlimit:4;stroke-dasharray:none;stroke-opacity:1"
       d="M 0.52916636,294.21944 H 10.054167"
       id="path4537-2"
       inkscape:connector-curvature="0" />
    <g
       id="g4727"
       transform="translate(0,0.57500807)"
       style="fill:#75baff;fill-opacity:1">
      <g
         transform="matrix(2.4163614,0,0,2.4163614,-11.41583,-423.15278)"
         id="text4548"
         style="font-style:normal;font-weight:normal;font-size:1.23056006px;line-height:1.25;font-family:sans-serif;letter-spacing:0px;word-spacing:0px;fill:#75baff;fill-opacity:1;stroke:none;stroke-width:0.092292"
         aria-label="JSGF">
        <path
           inkscape:connector-curvature="0"
           id="path26"
           style="font-style:normal;font-variant:normal;font-weight:bold;font-stretch:normal;font-size:1.47667193px;line-height:1.25;font-family:sans-serif;-inkscape-font-specification:'sans-serif Bold';word-spacing:0px;fill:#75baff;fill-opacity:1;stroke-width:0.092292"
           d="m 5.609614,295.50867 q 0,0.0707 -0.025236,0.13267 -0.025236,0.0613 -0.074987,0.10383 -0.052635,0.0454 -0.1269015,0.0707 -0.074266,0.0245 -0.183863,0.0245 -0.074266,0 -0.13988,-0.006 -0.065614,-0.005 -0.115365,-0.0152 v -0.21775 h 0.025957 q 0.034609,0.013 0.072103,0.0245 0.037494,0.0108 0.095897,0.0108 0.075708,0 0.116086,-0.0202 0.041099,-0.0202 0.058403,-0.0562 0.016584,-0.0353 0.018747,-0.0772 0.00216,-0.0425 0.00216,-0.10815 V 294.9474 H 5.0868664 v -0.19756 H 5.609614 Z" />
        <path
           inkscape:connector-curvature="0"
           id="path28"
           style="font-style:normal;font-variant:normal;font-weight:bold;font-stretch:normal;font-size:1.47667193px;line-height:1.25;font-family:sans-serif;-inkscape-font-specification:'sans-serif Bold';word-spacing:0px;fill:#75baff;fill-opacity:1;stroke-width:0.092292"
           d="m 6.7286544,295.48632 q 0,0.15863 -0.1348328,0.25813 -0.1341118,0.0988 -0.3648418,0.0988 -0.1333908,0 -0.2328931,-0.0231 -0.098781,-0.0238 -0.185305,-0.0598 v -0.25741 h 0.030283 q 0.085803,0.0685 0.1917943,0.10527 0.1067126,0.0368 0.2047729,0.0368 0.025236,0 0.066335,-0.004 0.041099,-0.004 0.067056,-0.0144 0.031725,-0.013 0.051914,-0.0324 0.02091,-0.0195 0.02091,-0.0577 0,-0.0353 -0.030283,-0.0606 -0.029562,-0.026 -0.087245,-0.0396 -0.060567,-0.0144 -0.1283435,-0.0267 -0.067056,-0.013 -0.1261805,-0.0325 -0.1355539,-0.044 -0.1953995,-0.11897 -0.059125,-0.0757 -0.059125,-0.18747 0,-0.14997 0.1341118,-0.24443 0.1348328,-0.0952 0.346095,-0.0952 0.1059916,0 0.209099,0.0209 0.1038285,0.0202 0.1795368,0.0512 v 0.24731 H 6.656551 q -0.064893,-0.0519 -0.1593479,-0.0865 -0.093734,-0.0353 -0.1917943,-0.0353 -0.03461,0 -0.069219,0.005 -0.033888,0.004 -0.065614,0.0173 -0.02812,0.0108 -0.048309,0.0332 -0.020189,0.0216 -0.020189,0.0497 0,0.0425 0.032446,0.0656 0.032446,0.0224 0.1225753,0.0411 0.059125,0.0123 0.1132019,0.0238 0.054798,0.0115 0.1175281,0.0317 0.1232964,0.0404 0.1816999,0.11032 0.059125,0.0692 0.059125,0.18026 z" />
        <path
           inkscape:connector-curvature="0"
           id="path30"
           style="font-style:normal;font-variant:normal;font-weight:bold;font-stretch:normal;font-size:1.47667193px;line-height:1.25;font-family:sans-serif;-inkscape-font-specification:'sans-serif Bold';word-spacing:0px;fill:#75baff;fill-opacity:1;stroke-width:0.092292"
           d="m 7.8686048,295.76247 q -0.072103,0.0281 -0.1910732,0.0562 -0.1189702,0.0274 -0.2372193,0.0274 -0.2739919,0 -0.4290136,-0.14853 -0.1550217,-0.14925 -0.1550217,-0.41171 0,-0.2502 0.1564638,-0.40305 0.1564638,-0.15358 0.4362239,-0.15358 0.1059916,0 0.2018887,0.0195 0.095897,0.0188 0.2134253,0.0757 v 0.25164 h -0.031004 q -0.020189,-0.0151 -0.059125,-0.0425 -0.038936,-0.0281 -0.074987,-0.0476 -0.04182,-0.0231 -0.09806,-0.0396 -0.055519,-0.0166 -0.1182492,-0.0166 -0.073545,0 -0.1333907,0.0216 -0.059846,0.0216 -0.1074337,0.0663 -0.045425,0.0433 -0.072103,0.11032 -0.025957,0.0663 -0.025957,0.15358 0,0.17809 0.094455,0.27255 0.094455,0.0944 0.279039,0.0944 0.015863,0 0.03461,-7.2e-4 0.019468,-7.2e-4 0.035331,-0.002 v -0.21054 H 7.3732564 v -0.20261 h 0.4953484 z" />
        <path
           inkscape:connector-curvature="0"
           id="path32"
           style="font-style:normal;font-variant:normal;font-weight:bold;font-stretch:normal;font-size:1.47667193px;line-height:1.25;font-family:sans-serif;-inkscape-font-specification:'sans-serif Bold';word-spacing:0px;fill:#75baff;fill-opacity:1;stroke-width:0.092292"
           d="M 8.8852588,294.9578 H 8.3913525 v 0.19973 h 0.4578548 v 0.20766 H 8.3913525 v 0.45857 h -0.275434 v -1.07361 h 0.7693403 z" />
      </g>
      <text
         transform="scale(1.1939082,0.83758533)"
         id="text4718"
         y="350.07703"
         x="0.22944963"
         style="font-style:normal;font-weight:normal;font-size:2.18903327px;line-height:1.25;font-family:sans-serif;letter-spacing:0px;word-spacing:0px;fill:#75baff;fill-opacity:1;stroke:none;stroke-width:0.12629038"
         xml:space="preserve"><tspan
           style="font-size:2.18903327px;fill:#75baff;fill-opacity:1;stroke-width:0.12629038"
           y="350.07703"
           x="0.22944963"
           id="tspan4716"
           sodipodi:role="line">PLUGIN</tspan></text>
    </g>
  </g>
</svg>
